<?xml version="1.0" encoding="utf-8"?>
<!-- Generator: Adobe Illustrator 21.0.0, SVG Export Plug-In . SVG Version: 6.00 Build 0)  -->
<svg version="1.1" id="图层_1" xmlns="http://www.w3.org/2000/svg" xmlns:xlink="http://www.w3.org/1999/xlink" x="0px" y="0px"
	 viewBox="0 0 200 200" style="enable-background:new 0 0 200 200;" xml:space="preserve">
<style type="text/css">
	.st0{fill:#CACACA;}
</style>
<path class="st0" d="M99.8,170.6L99.8,170.6c39.1,0,70.9-31.7,70.9-70.9s-31.7-70.9-70.9-70.9S28.9,60.6,28.9,99.8
	S60.6,170.6,99.8,170.6L99.8,170.6L99.8,170.6z M99.8,187L99.8,187c-48.2,0-87.2-39.1-87.2-87.2s39.1-87.2,87.2-87.2
	S187,51.6,187,99.8S147.9,187,99.8,187L99.8,187L99.8,187z M72.5,97c7.5,0,13.6-6.1,13.6-13.6S80,69.8,72.5,69.8
	c-7.5,0-13.6,6.1-13.6,13.6S65,97,72.5,97L72.5,97L72.5,97z M127,97c7.5,0,13.6-6.1,13.6-13.6s-6.1-13.6-13.6-13.6
	c-7.5,0-13.6,6.1-13.6,13.6S119.5,97,127,97L127,97L127,97z M99.8,139c-13.9,0-26.3-8.8-32-21.8c0,0-0.5-5.5-6.3-5.5
	c-5.8,0-5.4,5.5-5.4,5.5c6.1,18.7,23.2,32.7,43.6,32.7c20.4,0,38.5-14.1,43.6-32.7c0,0,0-5.5-5.3-5.5c-5.3,0-6.2,5.5-6.2,5.5
	C127,129.9,114,139,99.8,139L99.8,139z"/>
</svg>
